HIERARCHY
ROOT Hips
{
  OFFSET 73.9375 100.842 33.3016
  CHANNELS 6 Xposition Yposition Zposition Zrotation Xrotation Yrotation
  JOINT RightUpLeg
  {
    OFFSET -8.9458 -8.66707 0.101652
    CHANNELS 3 Zrotation Xrotation Yrotation
    JOINT RightLeg
    {
      OFFSET 0 -44.4227 1.3727
      CHANNELS 3 Zrotation Xrotation Yrotation
      JOINT RightFoot
      {
        OFFSET 0.253549 -42.0924 -1.46059
        CHANNELS 3 Zrotation Xrotation Yrotation
        JOINT RightToes
        {
          OFFSET 0.04 -4.41509 8.4991
          CHANNELS 3 Zrotation Xrotation Yrotation
          End Site
          {
            OFFSET -0.08 -0.137448 9.77979
          }
        }
      }
    }
  }
  JOINT Spine
  {
    OFFSET 0 11.8905 0
    CHANNELS 3 Zrotation Xrotation Yrotation
    JOINT Spine1
    {
      OFFSET 0 25.6574 0.127663
      CHANNELS 3 Zrotation Xrotation Yrotation
      JOINT HEad
      {
        OFFSET 0 8.73416 0.011341
        CHANNELS 3 Zrotation Xrotation Yrotation
        End Site
        {
          OFFSET -0.29 12.7742 2.51395
        }
      }
      JOINT LeftShoulder1
      {
        OFFSET 8.99 -0.362252 -0.22
        CHANNELS 3 Zrotation Xrotation Yrotation
        JOINT LeftArm
        {
          OFFSET 10.2827 -0.00338 0.322123
          CHANNELS 3 Zrotation Xrotation Yrotation
          JOINT LeftForeArm
          {
            OFFSET 32.7669 0.099144 -1.42434
            CHANNELS 3 Zrotation Xrotation Yrotation
            JOINT LeftHand
            {
              OFFSET 27.5643 0.085362 1.02216
              CHANNELS 3 Zrotation Xrotation Yrotation
              End Site
              {
                OFFSET 16.7443 -0.6 1.50291
              }
            }
          }
        }
      }
      JOINT RightShoulder
      {
        OFFSET -8.99 -0.362252 -0.22
        CHANNELS 3 Zrotation Xrotation Yrotation
        JOINT RightArm
        {
          OFFSET -10.2827 -0.00338 0.322123
          CHANNELS 3 Zrotation Xrotation Yrotation
          JOINT RightForeArm
          {
            OFFSET -32.8971 0.099144 -1.42434
            CHANNELS 3 Zrotation Xrotation Yrotation
            JOINT RightHand
            {
              OFFSET -27.4921 0.085362 1.02216
              CHANNELS 3 Zrotation Xrotation Yrotation
              End Site
              {
                OFFSET -16.6312 -0.6 1.50291
              }
            }
          }
        }
      }
    }
  }
  JOINT LeftUpLeg
  {
    OFFSET 8.9458 -8.66707 0.101652
    CHANNELS 3 Zrotation Xrotation Yrotation
    JOINT LeftLeg
    {
      OFFSET 0 -44.4227 1.3727
      CHANNELS 3 Zrotation Xrotation Yrotation
      JOINT LeftFoot
      {
        OFFSET -0.253549 -42.0924 -1.46059
        CHANNELS 3 Zrotation Xrotation Yrotation
        JOINT LeftToes
        {
          OFFSET -0.04 -4.41509 8.4991
          CHANNELS 3 Zrotation Xrotation Yrotation
          End Site
          {
            OFFSET 0.08 -0.047448 9.77979
          }
        }
      }
    }
  }
}
MOTION
Frames:	14
Frame Time:	0.0166667
83.6437 99.5307 -52.9695 -0.873288 1.33814 -176.305 2.66771 -26.2631 6.06609 2.34829 36.0988 -12.4382 8.91902 -2.2117 -0.196019 -1.57731 2.20964 2.36732 0.0767797 4.58341 -0.00216557 -0.0797453 15.5382 0.116243 -1.15935 1.58832 3.26044 -5.96354e-016 -3.18055e-015 -7.95139e-016 -99.1975 -13.195 -31.7583 -17.7026 16.2104 -21.8837 0.368473 9.90896 -0.00117926 -0.427636 -0.182437 -5.7632 97.74 -36.3437 11.7096 16.1804 15.2322 20.5193 -0.369625 9.91382 0.00119886 1.06034 -18.8908 -1.69505 -8.43882 58.68 19.3419 -14.2518 -1.77145 0.120858 1.00544 -5.16592 -5.59365 
83.9881 99.2928 -53.7802 -0.272911 1.28972 -175.942 3.50018 -26.2205 6.18828 2.86591 36.8577 -12.1272 8.57865 -2.9233 -0.149725 0.774391 0.844015 -0.380019 1.04382 4.65887 -0.0507583 0.0203849 15.6114 0.150153 -0.849864 1.54949 3.16587 5.96354e-016 0 -0 -99.057 -13.4832 -31.2882 -17.7028 16.1593 -21.6236 0.368473 9.90896 -0.00117926 -0.403339 -0.184091 -5.77974 97.9138 -35.8903 12.3258 16.201 15.2226 20.373 -0.369625 9.91382 0.00119886 1.9638 -21.3737 -1.21357 -7.99027 62.1409 19.8505 -14.0101 1.9144 0.552368 2.70741 -1.51027 -8.81586 
84.2891 99.0274 -54.589 0.319296 1.24923 -175.64 4.3104 -26.1988 6.31009 3.39618 37.6563 -11.5367 8.26139 -3.62639 -0.10462 3.46922 -0.781593 -3.74712 1.99893 4.72203 -0.101406 0.136016 15.6438 0.180305 -0.582166 1.54817 3.13462 -0 0 7.95139e-016 -98.9466 -13.9151 -30.7538 -17.732 16.1178 -21.4033 0.368473 9.90896 -0.00117926 -0.442318 -0.176742 -5.69619 97.8624 -35.2707 12.7322 16.4043 15.3011 20.5631 -0.369625 9.91382 0.00119886 2.7645 -23.793 -0.534685 -6.9936 65.3831 19.6846 -13.637 4.93143 0.909973 4.03827 1.8655 -10.3233 
84.5078 98.8159 -55.4604 0.782966 1.30122 -175.556 4.9078 -25.9925 6.30272 3.76382 38.4487 -11.6569 8.31462 -4.52059 -0.0439362 3.66085 -1.18346 -3.9563 2.76931 4.75981 -0.132977 0.288389 15.7248 0.194341 -0.510221 1.66033 3.25635 -3.97569e-016 0 -7.95139e-016 -99.0824 -14.7425 -30.2133 -17.7657 16.068 -21.1674 0.368473 9.90896 -0.00117926 -0.661817 -0.150477 -5.4092 97.7328 -34.5947 12.9914 16.6935 15.4448 21.1021 -0.369625 9.91382 0.00119886 3.30848 -25.6724 0.294487 -5.49745 68.0526 18.6285 -13.6232 6.00723 1.03541 3.07012 2.00674 -7.61584 
84.7008 98.6655 -56.3411 1.13742 1.36922 -175.523 5.38984 -25.6743 6.19565 3.97723 39.1079 -11.8208 8.40708 -5.44356 0.0180044 3.29454 -1.15501 -3.44819 3.36139 4.77562 -0.153759 0.388509 15.8055 0.208242 -0.454337 1.77367 3.39062 1.98785e-016 0 -7.95139e-016 -99.2272 -15.6877 -29.6406 -17.8158 16.0283 -20.9888 0.368473 9.90896 -0.00117926 -0.864431 -0.124976 -5.12881 97.5749 -33.8351 13.2837 17.0128 15.6093 21.7486 -0.369625 9.91382 0.00119886 3.66963 -27.2741 0.959493 -3.99111 70.0495 17.5688 -13.6249 6.04306 1.03364 1.54657 0.961765 -3.97538 
84.9225 98.6302 -57.1955 1.34809 1.40208 -175.397 5.79505 -25.2234 5.94366 3.90683 39.4398 -11.5714 8.26303 -6.33201 0.0740004 3.38594 -0.886922 -3.61842 3.68132 4.76526 -0.162885 0.336641 15.8735 0.235167 -0.236462 1.76974 3.39916 -1.98785e-016 0 -7.95139e-016 -99.1912 -16.5013 -29.0306 -17.9023 16.022 -20.9621 0.368473 9.90896 -0.00117926 -0.845957 -0.122985 -5.1007 97.458 -32.9435 13.8527 17.2895 15.7462 22.2354 -0.369625 9.91382 0.00119886 3.79405 -28.7132 0.975637 -3.85939 71.1264 18.3905 -13.4084 5.39294 0.941819 0.745776 -0.216093 -2.25918 
85.14 98.65 -58.0356 1.45723 1.40844 -175.266 6.11862 -24.7135 5.64619 3.69928 39.606 -11.2059 8.05919 -7.08851 0.11919 3.51734 -0.692744 -3.82684 3.85738 4.73842 -0.166703 0.186079 15.9094 0.271264 -0.00125334 1.74322 3.36495 -3.97569e-016 6.36111e-015 7.95139e-016 -99.0782 -17.3296 -28.359 -17.979 16.0188 -20.9662 0.368473 9.90896 -0.00117926 -0.742052 -0.125616 -5.11462 97.4199 -32.0896 14.5408 17.4966 15.86 22.6478 -0.369625 9.91382 0.00119886 3.75055 -29.9787 0.726406 -4.39909 71.4056 19.7111 -13.2446 4.42456 0.816643 0.231255 -1.46021 -1.28496 
85.3392 98.6726 -58.8624 1.49189 1.36993 -175.177 6.36648 -24.2365 5.39201 3.45227 39.7299 -10.8907 7.88652 -7.55527 0.142988 3.57006 -1.0682 -3.83338 3.99827 4.70173 -0.181662 -0.126244 15.9367 0.333552 0.204225 1.69756 3.31637 3.97569e-016 3.18055e-015 -7.95139e-016 -98.8636 -18.2373 -27.5928 -17.9905 15.9985 -20.9508 0.368473 9.90896 -0.00117926 -0.471323 -0.127069 -5.11607 97.5092 -31.3498 15.3561 17.6014 15.9364 22.9159 -0.369625 9.91382 0.00119886 3.63946 -31.1158 0.433084 -5.00824 70.9386 20.2644 -13.3854 3.76161 0.747666 -0.0291374 -2.3138 -0.867795 
85.5174 98.7279 -59.6738 1.46376 1.31654 -175.108 6.52819 -23.7209 5.15983 3.20645 39.7326 -10.5805 7.72388 -7.85011 0.154899 3.64651 -1.6565 -3.83347 4.06893 4.66005 -0.176593 -0.350559 15.8146 0.37245 0.264391 1.7879 3.27902 -0 0 7.95139e-016 -98.7225 -19.2267 -26.7552 -17.9833 15.9531 -20.7987 0.368473 9.90896 -0.00117926 -0.481315 -0.110758 -4.88356 97.8204 -30.9511 16.0672 17.548 15.984 23.237 -0.369625 9.91382 0.00119886 3.45817 -32.0604 0.161616 -5.61956 69.7507 20.5633 -13.6383 2.99054 0.670871 -0.117765 -2.9041 -0.870959 
85.6677 98.8334 -60.4683 1.40028 1.28115 -175.05 6.6005 -23.1068 4.9703 3.05146 39.5433 -10.3269 7.58643 -7.95912 0.156291 3.80424 -2.41938 -3.90832 4.07076 4.6225 -0.107071 -0.111727 15.2811 0.31499 -0.0752897 2.30605 3.30819 -5.96354e-016 0 7.95139e-016 -98.9059 -20.3397 -25.804 -18.0133 15.856 -20.2838 0.368473 9.90896 -0.00117926 -1.48519 -0.0408616 -3.96401 98.6634 -31.3971 16.3233 17.1646 15.9854 23.842 -0.369625 9.91382 0.00119886 3.26659 -32.7525 0.0820424 -5.98819 67.8682 20.7065 -13.9179 1.74671 0.532834 -0.0283448 -3.08685 -1.2268 
85.7879 98.9734 -61.245 1.28053 1.23661 -175.015 6.56894 -22.4512 4.78756 2.94224 39.2616 -10.0087 7.45869 -8.11966 0.161287 4.04977 -2.89621 -4.16032 4.00334 4.58293 -0.0293425 0.14842 14.7229 0.249122 -0.445851 2.84546 3.34389 3.97569e-016 3.18055e-015 7.95139e-016 -99.1543 -21.5243 -24.9027 -17.99 15.737 -19.6851 0.368473 9.90896 -0.00117926 -2.60995 0.0311524 -2.99768 99.5059 -31.9421 16.5277 16.761 15.9958 24.5599 -0.369625 9.91382 0.00119886 3.0316 -33.2292 0.132074 -6.27685 65.3318 20.9446 -14.1696 0.506897 0.392738 0.0523727 -3.22311 -1.54367 
85.8676 99.1382 -62.0021 1.07104 1.15886 -175.027 6.38365 -21.7979 4.55844 2.86755 38.9931 -9.40583 7.31508 -8.67425 0.19104 4.5119 -2.37199 -4.88719 3.86263 4.53479 0.00388104 0.0149205 14.5342 0.257085 -0.470115 3.0061 3.33703 -1.98785e-016 -3.18055e-015 -0 -99.2828 -22.7322 -24.2765 -17.8289 15.6246 -19.2454 0.368473 9.90896 -0.00117926 -3.07364 0.0547919 -2.58978 99.8093 -31.8596 17.0559 16.6403 16.0761 25.2907 -0.369625 9.91382 0.00119886 2.72175 -33.4974 0.314442 -6.49046 62.1533 21.6249 -14.3171 -0.468638 0.278974 -0.030669 -3.44587 -1.36321 
85.9259 99.3268 -62.7413 0.836894 1.07157 -175.04 6.15094 -21.1262 4.35625 2.81912 38.6426 -8.86766 7.20312 -9.29343 0.226189 4.9314 -1.57454 -5.57992 3.66037 4.48844 0.0264646 -0.206758 14.43 0.279963 -0.421284 3.06055 3.3079 3.97569e-016 0 2.38542e-015 -99.3818 -23.9847 -23.7168 -17.5799 15.5075 -18.8448 0.368473 9.90896 -0.00117926 -3.29983 0.0617185 -2.39237 99.8456 -31.5887 17.5974 16.6431 16.1922 26.0549 -0.369625 9.91382 0.00119886 2.36959 -33.5851 0.592767 -6.44849 58.4554 22.22 -14.3128 -0.894716 0.228558 -0.338916 -4.29646 -0.816985 
85.9815 99.5427 -63.4639 0.644879 0.996527 -175.009 5.97484 -20.4125 4.25983 2.78742 38.1217 -8.73262 7.16857 -9.7745 0.254892 5.04443 -0.938755 -5.83086 3.40007 4.45264 0.0593583 -0.320764 14.2085 0.280133 -0.475663 3.20227 3.25513 3.97569e-016 6.36111e-015 -0 -99.4633 -25.3097 -23.0577 -17.2569 15.3755 -18.4017 0.368473 9.90896 -0.00117926 -3.45709 0.0681426 -2.24951 99.6776 -31.3749 17.9116 16.7181 16.3325 26.8393 -0.369625 9.91382 0.00119886 2.0011 -33.4996 0.979954 -6.17202 54.2644 22.4141 -13.9727 -0.0250611 0.332241 -1.22392 -7.40198 0.562181 
